<svg xmlns="http://www.w3.org/2000/svg" viewBox="0 0 1200 500" width="1200" height="500">
<defs><linearGradient id="bg4" x1="0" y1="0" x2="1" y2="1"><stop offset="0" stop-color="#0a1628"/><stop offset="1" stop-color="#1c3b2e"/></linearGradient></defs>
<rect width="1200" height="500" fill="url(#bg4)"/>
<g transform="translate(380,120)"><rect x="0" y="0" width="440" height="260" rx="12" fill="#0e2a3a" stroke="#16a085" stroke-width="5"/>
<!-- hair algae strands -->
<g stroke="#5a8f3c" stroke-width="6" fill="none" opacity="0.85" stroke-linecap="round">
<path d="M60 250 q-15 -70 5 -110 q20 40 0 110"/><path d="M110 250 q15 -80 -5 -130 q-20 50 5 130"/>
<path d="M170 250 q-10 -60 8 -95 q15 35 -2 95"/><path d="M250 250 q18 -90 -6 -140 q-22 55 6 140"/>
<path d="M330 250 q-12 -70 6 -110 q18 45 -2 110"/><path d="M390 250 q14 -75 -4 -120 q-20 50 4 120"/></g>
<rect x="0" y="250" width="440" height="10" fill="#0a1628"/></g>
<!-- magnifier -->
<g transform="translate(900,300)"><circle cx="0" cy="0" r="70" fill="none" stroke="#00d4b8" stroke-width="12"/><line x1="50" y1="50" x2="110" y2="110" stroke="#00d4b8" stroke-width="16" stroke-linecap="round"/><circle cx="0" cy="0" r="55" fill="#ffffff" opacity="0.08"/></g>
<text x="60" y="80" fill="#00d4b8" font-family="Inter,Arial,sans-serif" font-size="30" font-weight="700" letter-spacing="3">2D AQUATIC · XỬ LÝ SỰ CỐ</text>
</svg>
