<svg xmlns="http://www.w3.org/2000/svg" viewBox="0 0 1200 500" width="1200" height="500">
<defs><linearGradient id="bg5" x1="0" y1="0" x2="1" y2="1"><stop offset="0" stop-color="#0a1628"/><stop offset="1" stop-color="#103a4a"/></linearGradient></defs>
<rect width="1200" height="500" fill="url(#bg5)"/>
<!-- storefront -->
<g transform="translate(300,150)"><rect x="0" y="60" width="320" height="200" rx="6" fill="#13324a" stroke="#16a085" stroke-width="4"/>
<path d="M-20 60 L160 -10 L340 60 Z" fill="#16a085"/>
<rect x="40" y="110" width="100" height="110" rx="4" fill="#0a1628" stroke="#00d4b8" stroke-width="3"/>
<rect x="180" y="110" width="100" height="110" rx="4" fill="#0a1628" stroke="#00d4b8" stroke-width="3"/>
<path d="M60 200 q20 -40 45 -8 q15 -22 35 0 l0 28 -80 0Z" fill="#16a085" opacity="0.6"/>
<text x="160" y="48" text-anchor="middle" fill="#fff" font-family="Inter,Arial" font-size="26" font-weight="800">2D AQUATIC</text></g>
<!-- map pin -->
<g transform="translate(820,180)"><path d="M0 0 C-55 0 -90 40 -90 90 C-90 150 0 230 0 230 C0 230 90 150 90 90 C90 40 55 0 0 0Z" fill="#ff5a4a"/><circle cx="0" cy="88" r="38" fill="#fff"/><circle cx="0" cy="88" r="20" fill="#ff5a4a"/></g>
<text x="60" y="80" fill="#00d4b8" font-family="Inter,Arial,sans-serif" font-size="30" font-weight="700" letter-spacing="3">2D AQUATIC · HÀ NỘI</text>
</svg>
