<svg xmlns="http://www.w3.org/2000/svg" viewBox="0 0 1200 500" width="1200" height="500">
<defs><linearGradient id="bg2" x1="0" y1="0" x2="1" y2="1"><stop offset="0" stop-color="#0a1628"/><stop offset="1" stop-color="#0e4a44"/></linearGradient></defs>
<rect width="1200" height="500" fill="url(#bg2)"/>
<g opacity="0.12" fill="none" stroke="#16a085" stroke-width="3"><path d="M0 430 Q300 395 600 430 T1200 430"/></g>
<!-- fish helper -->
<g id="f"><ellipse rx="55" ry="32" fill="#16a085"/><path d="M50 0 L90 -26 L90 26 Z" fill="#16a085"/><circle cx="-30" cy="-6" r="7" fill="#fff"/><circle cx="-30" cy="-6" r="3.5" fill="#0a1628"/></g>
<use href="#f" transform="translate(360,200) scale(1.4)"/>
<use href="#f" transform="translate(620,300) scale(1.1)" opacity="0.9"/>
<g transform="translate(820,180) scale(1.2)"><ellipse rx="55" ry="32" fill="#ff7a3c"/><path d="M50 0 L90 -26 L90 26 Z" fill="#ff7a3c"/><circle cx="-30" cy="-6" r="7" fill="#fff"/><circle cx="-30" cy="-6" r="3.5" fill="#0a1628"/></g>
<g transform="translate(560,160) scale(0.8)"><ellipse rx="55" ry="32" fill="#f4d35e"/><path d="M50 0 L90 -26 L90 26 Z" fill="#f4d35e"/><circle cx="-30" cy="-6" r="7" fill="#fff"/><circle cx="-30" cy="-6" r="3.5" fill="#0a1628"/></g>
<g transform="translate(900,330) scale(0.9)"><ellipse rx="55" ry="32" fill="#5aa9e6"/><path d="M50 0 L90 -26 L90 26 Z" fill="#5aa9e6"/><circle cx="-30" cy="-6" r="7" fill="#fff"/><circle cx="-30" cy="-6" r="3.5" fill="#0a1628"/></g>
<text x="60" y="80" fill="#00d4b8" font-family="Inter,Arial,sans-serif" font-size="30" font-weight="700" letter-spacing="3">2D AQUATIC · CẨM NANG</text>
</svg>
