<svg xmlns="http://www.w3.org/2000/svg" viewBox="0 0 1200 500" width="1200" height="500">
<defs><linearGradient id="b3" x1="0" y1="0" x2="1" y2="1"><stop offset="0" stop-color="#0a1628"/><stop offset="1" stop-color="#0e4a44"/></linearGradient></defs>
<rect width="1200" height="500" fill="url(#b3)"/>
<g transform="translate(300,150)"><rect width="300" height="200" rx="10" fill="#0e2a3a" stroke="#16a085" stroke-width="5"/><rect x="0" y="120" width="300" height="80" rx="4" fill="#16a085" opacity="0.35"/><rect x="0" y="200" width="300" height="36" rx="6" fill="#cfd8dc"/></g>
<!-- droplet -->
<g transform="translate(780,160)"><path d="M0 -60 C40 0 60 30 60 70 A60 60 0 1 1 -60 70 C-60 30 -40 0 0 -60Z" fill="#00d4b8"/><ellipse cx="-18" cy="70" rx="14" ry="20" fill="#fff" opacity="0.45"/></g>
<g stroke="#00d4b8" stroke-width="6" fill="none" stroke-linecap="round" opacity="0.7"><path d="M640 250 q60 -20 120 0"/><path d="M640 280 q60 -20 120 0"/></g>
<text x="60" y="80" fill="#00d4b8" font-family="Inter,Arial,sans-serif" font-size="30" font-weight="700" letter-spacing="3">2D AQUATIC · BẢO TRÌ</text>
</svg>
