<svg xmlns="http://www.w3.org/2000/svg" viewBox="0 0 1200 500" width="1200" height="500">
<defs><linearGradient id="b" x1="0" y1="0" x2="1" y2="1"><stop offset="0" stop-color="#0a1628"/><stop offset="1" stop-color="#0a1628"/></linearGradient></defs>
<rect width="1200" height="500" fill="url(#b)"/>
<g transform="translate(300,300)" stroke="#f4c430" stroke-width="14" stroke-linecap="round" fill="none">
     <path d="M0 0 L0 -90"/><path d="M0 -50 L-40 -110"/><path d="M0 -55 L40 -115"/>
     <path d="M-40 -110 L-50 -155"/><path d="M40 -115 L52 -160"/>
     </g>
     <g fill="#f4c430"><circle cx="300" cy="200" r="10"/><circle cx="258" cy="148" r="9"/><circle cx="342" cy="143" r="9"/></g>
     <g transform="translate(650,300)" stroke="#ff7a9c" stroke-width="12" stroke-linecap="round" fill="none">
     <path d="M0 0 L0 -80"/><path d="M0 -40 L-30 -90"/><path d="M0 -45 L30 -95"/>
     </g>
     <g fill="#ff7a9c"><circle cx="650" cy="218" r="8"/><circle cx="620" cy="208" r="7"/><circle cx="680" cy="203" r="7"/></g>
     <g transform="translate(950,320)" stroke="#7b5ea7" stroke-width="10" stroke-linecap="round" fill="none">
     <path d="M0 0 L0 -60"/><path d="M0 -30 L-20 -70"/><path d="M0 -35 L20 -75"/>
     </g>
<text x="60" y="80" fill="#00d4b8" font-family="Inter,Arial,sans-serif" font-size="30" font-weight="700" letter-spacing="3">2D AQUATIC · KỸ THUẬT REEF</text>
</svg>