<svg xmlns="http://www.w3.org/2000/svg" viewBox="0 0 800 420">
<defs><linearGradient id="bg" x1="0" y1="0" x2="1" y2="1">
<stop offset="0" stop-color="#0a1628"/><stop offset="1" stop-color="#001e0e"/></linearGradient></defs>
<rect width="800" height="420" fill="url(#bg)"/>
<g opacity=".8"><path d="M320 330 Q320 270 280 230 Q260 210 280 190 Q300 170 320 200 Q340 230 320 270" fill="#16a085"/><path d="M380 330 Q380 250 340 200 Q320 170 350 150 Q380 130 400 160 Q420 190 400 250 Q390 290 380 330" fill="#00d4b8"/><path d="M440 330 Q450 280 480 250 Q500 230 490 210 Q480 190 460 200 Q440 210 440 250" fill="#0891b2"/></g>
<text x="40" y="48" fill="#00d4b8" font-family="Inter,Arial" font-size="11" font-weight="700" letter-spacing="3">2D AQUATIC · CẨM NANG · SAN HÔ</text>
<text x="40" y="400" fill="rgba(255,255,255,.4)" font-family="Inter,Arial" font-size="13">2daquatic.com</text>
</svg>