<svg xmlns="http://www.w3.org/2000/svg" viewBox="0 0 1200 500" width="1200" height="500">
<defs><linearGradient id="b4" x1="0" y1="0" x2="1" y2="1"><stop offset="0" stop-color="#0a1628"/><stop offset="1" stop-color="#14324a"/></linearGradient></defs>
<rect width="1200" height="500" fill="url(#b4)"/>
<g transform="translate(360,140)">
<g transform="translate(0,0)"><rect x="0" y="0" width="46" height="220" rx="22" fill="#16384a" stroke="#fff" stroke-width="3"/><rect x="6" y="120" width="34" height="94" rx="16" fill="#16a085"/></g>
<g transform="translate(90,0)"><rect x="0" y="0" width="46" height="220" rx="22" fill="#16384a" stroke="#fff" stroke-width="3"/><rect x="6" y="80" width="34" height="134" rx="16" fill="#f4c430"/></g>
<g transform="translate(180,0)"><rect x="0" y="0" width="46" height="220" rx="22" fill="#16384a" stroke="#fff" stroke-width="3"/><rect x="6" y="150" width="34" height="64" rx="16" fill="#ff7a3c"/></g>
<g transform="translate(270,0)"><rect x="0" y="0" width="46" height="220" rx="22" fill="#16384a" stroke="#fff" stroke-width="3"/><rect x="6" y="60" width="34" height="154" rx="16" fill="#5aa9e6"/></g>
</g>
<text x="720" y="250" fill="#fff" font-family="Inter,Arial" font-size="46" font-weight="800" opacity="0.9">pH · KH</text>
<text x="720" y="310" fill="#00d4b8" font-family="Inter,Arial" font-size="46" font-weight="800">Ca · Mg</text>
<text x="60" y="80" fill="#00d4b8" font-family="Inter,Arial,sans-serif" font-size="30" font-weight="700" letter-spacing="3">2D AQUATIC · CẨM NANG</text>
</svg>
