<svg xmlns="http://www.w3.org/2000/svg" viewBox="0 0 1200 500" width="1200" height="500">
<defs><linearGradient id="b" x1="0" y1="0" x2="1" y2="1"><stop offset="0" stop-color="#0a1628"/><stop offset="1" stop-color="#0e3a44"/></linearGradient></defs>
<rect width="1200" height="500" fill="url(#b)"/>
<g transform="translate(600,290)">
     <path d="M0 -80 L60 -30 L80 60 L0 100 L-80 60 L-60 -30Z" fill="none" stroke="#ff7a9c" stroke-width="6"/>
     <ellipse rx="40" ry="30" fill="#ff7a9c" opacity="0.8"/>
     <path d="M-60 -30 Q-120 -60 -150 -30" stroke="#ff7a9c" stroke-width="6" fill="none" stroke-linecap="round"/>
     <path d="M60 -30 Q120 -60 150 -30" stroke="#ff7a9c" stroke-width="6" fill="none" stroke-linecap="round"/>
     <path d="M-40 60 Q-50 110 -70 130" stroke="#ff7a9c" stroke-width="5" fill="none" stroke-linecap="round"/>
     <path d="M40 60 Q50 110 70 130" stroke="#ff7a9c" stroke-width="5" fill="none" stroke-linecap="round"/>
     <path d="M-15 100 Q-18 140 -20 160" stroke="#ff7a9c" stroke-width="5" fill="none" stroke-linecap="round"/>
     <path d="M15 100 Q18 140 20 160" stroke="#ff7a9c" stroke-width="5" fill="none" stroke-linecap="round"/>
     </g>
<text x="60" y="80" fill="#00d4b8" font-family="Inter,Arial,sans-serif" font-size="30" font-weight="700" letter-spacing="3">2D AQUATIC · SINH VẬT REEF</text>
</svg>